<svg width="1600" height="980" viewBox="0 0 1600 980" fill="none" xmlns="http://www.w3.org/2000/svg">
  <defs>
    <linearGradient id="bg" x1="0" y1="0" x2="1600" y2="980" gradientUnits="userSpaceOnUse">
      <stop stop-color="#F4F1EA"/>
      <stop offset="1" stop-color="#ECE8DF"/>
    </linearGradient>
    <linearGradient id="card" x1="0" y1="0" x2="0" y2="1">
      <stop stop-color="#FFFDFC"/>
      <stop offset="1" stop-color="#F8F5EF"/>
    </linearGradient>
    <linearGradient id="accent" x1="0" y1="0" x2="1" y2="1">
      <stop stop-color="#A5B89A"/>
      <stop offset="1" stop-color="#839B80"/>
    </linearGradient>
    <filter id="softShadow" x="-40" y="-40" width="220" height="220" filterUnits="userSpaceOnUse">
      <feDropShadow dx="0" dy="18" stdDeviation="22" flood-color="#7D7B70" flood-opacity="0.14"/>
    </filter>
  </defs>

  <rect width="1600" height="980" fill="url(#bg)"/>
  <circle cx="220" cy="150" r="130" fill="#DDE5D8"/>
  <circle cx="1415" cy="820" r="180" fill="#E3DDD3"/>

  <text x="84" y="88" fill="#2C352F" font-size="42" font-family="Arial, sans-serif" font-weight="700">AI App UI 结构设计 V2</text>
  <text x="84" y="126" fill="#687168" font-size="22" font-family="Arial, sans-serif">参考“小云雀”偏工具化的轻界面质感，降低霓虹感，改为米白、鼠尾草绿、石墨灰。</text>

  <g transform="translate(72 188)">
    <rect x="0" y="0" width="460" height="706" rx="40" fill="#E7E0D6" stroke="#D8D0C6" stroke-width="2"/>
    <rect x="18" y="18" width="424" height="670" rx="30" fill="url(#card)" stroke="#E5DED3"/>
    <text x="40" y="56" fill="#7B887D" font-size="18" font-family="Arial, sans-serif">动漫生成</text>
    <text x="40" y="92" fill="#2C352F" font-size="30" font-family="Arial, sans-serif" font-weight="700">项目创作中枢</text>
    <text x="40" y="120" fill="#778076" font-size="16" font-family="Arial, sans-serif">先建项目，再进入剧本、资产、导演三段工作流。</text>

    <rect x="34" y="146" width="392" height="66" rx="24" fill="#F2EEE7" stroke="#E4DDD1"/>
    <rect x="44" y="156" width="94" height="46" rx="18" fill="url(#accent)"/>
    <text x="72" y="185" fill="#FFFFFF" font-size="18" font-family="Arial, sans-serif" font-weight="700">项目</text>
    <text x="160" y="185" fill="#7A847A" font-size="18" font-family="Arial, sans-serif">剧本</text>
    <text x="240" y="185" fill="#7A847A" font-size="18" font-family="Arial, sans-serif">资产</text>
    <text x="320" y="185" fill="#7A847A" font-size="18" font-family="Arial, sans-serif">导演</text>

    <rect x="34" y="232" width="392" height="138" rx="28" fill="#FFFDFC" stroke="#E6DED1"/>
    <text x="58" y="272" fill="#2F3932" font-size="22" font-family="Arial, sans-serif" font-weight="700">项目创建</text>
    <text x="58" y="302" fill="#798177" font-size="16" font-family="Arial, sans-serif">项目名 / 剧本名 / 起始集数</text>
    <rect x="58" y="318" width="140" height="34" rx="17" fill="#F4F0E8" stroke="#E3DBCF"/>
    <rect x="208" y="318" width="124" height="34" rx="17" fill="#F4F0E8" stroke="#E3DBCF"/>
    <rect x="58" y="382" width="136" height="42" rx="18" fill="url(#accent)"/>
    <text x="92" y="409" fill="#FFFFFF" font-size="16" font-family="Arial, sans-serif" font-weight="700">创建项目</text>

    <rect x="34" y="390" width="392" height="122" rx="28" fill="#FCFAF7" stroke="#E6DED1"/>
    <text x="58" y="428" fill="#2F3932" font-size="22" font-family="Arial, sans-serif" font-weight="700">剧本阶段</text>
    <text x="58" y="456" fill="#798177" font-size="15" font-family="Arial, sans-serif">顶部滑块切换后，主体内容区替换为剧本输入、分镜生成与历史记录。</text>
    <rect x="58" y="474" width="150" height="20" rx="10" fill="#EDE7DD"/>
    <rect x="58" y="502" width="226" height="20" rx="10" fill="#EDE7DD"/>

    <rect x="34" y="530" width="188" height="96" rx="26" fill="#FCFAF7" stroke="#E6DED1"/>
    <text x="58" y="566" fill="#2F3932" font-size="20" font-family="Arial, sans-serif" font-weight="700">资产面板</text>
    <text x="58" y="592" fill="#7A847A" font-size="15" font-family="Arial, sans-serif">角色、场景、道具</text>

    <rect x="238" y="530" width="188" height="96" rx="26" fill="#FCFAF7" stroke="#E6DED1"/>
    <text x="262" y="566" fill="#2F3932" font-size="20" font-family="Arial, sans-serif" font-weight="700">导演面板</text>
    <text x="262" y="592" fill="#7A847A" font-size="15" font-family="Arial, sans-serif">镜头、关键帧、视频</text>

    <rect x="34" y="646" width="392" height="32" rx="16" fill="#F3EFE7" stroke="#E3DBCF"/>
    <text x="74" y="667" fill="#7C9780" font-size="16" font-family="Arial, sans-serif" font-weight="700">动漫生成</text>
    <text x="206" y="667" fill="#90978C" font-size="16" font-family="Arial, sans-serif">视频导出</text>
    <text x="330" y="667" fill="#90978C" font-size="16" font-family="Arial, sans-serif">个人中心</text>
  </g>

  <g transform="translate(570 188)">
    <rect x="0" y="0" width="460" height="706" rx="40" fill="#E7E0D6" stroke="#D8D0C6" stroke-width="2"/>
    <rect x="18" y="18" width="424" height="670" rx="30" fill="url(#card)" stroke="#E5DED3"/>
    <text x="40" y="56" fill="#7B887D" font-size="18" font-family="Arial, sans-serif">视频导出管理</text>
    <text x="40" y="92" fill="#2C352F" font-size="30" font-family="Arial, sans-serif" font-weight="700">导出中心</text>
    <text x="40" y="120" fill="#778076" font-size="16" font-family="Arial, sans-serif">统一管理渲染进度、失败重试、导出记录。</text>

    <rect x="34" y="146" width="392" height="76" rx="24" fill="#F5F1EB" stroke="#E4DDD1"/>
    <text x="58" y="174" fill="#7A847A" font-size="14" font-family="Arial, sans-serif">筛选</text>
    <rect x="58" y="184" width="84" height="24" rx="12" fill="url(#accent)"/>
    <text x="82" y="200" fill="#FFFFFF" font-size="13" font-family="Arial, sans-serif" font-weight="700">全部</text>
    <rect x="152" y="184" width="90" height="24" rx="12" fill="#ECE6DA"/>
    <text x="176" y="200" fill="#7A847A" font-size="13" font-family="Arial, sans-serif">进行中</text>
    <rect x="252" y="184" width="90" height="24" rx="12" fill="#ECE6DA"/>
    <text x="278" y="200" fill="#7A847A" font-size="13" font-family="Arial, sans-serif">已完成</text>
    <rect x="352" y="184" width="52" height="24" rx="12" fill="#ECE6DA"/>
    <text x="366" y="200" fill="#7A847A" font-size="13" font-family="Arial, sans-serif">失败</text>

    <rect x="34" y="242" width="392" height="120" rx="28" fill="#FFFDFC" stroke="#E6DED1"/>
    <text x="58" y="280" fill="#2F3932" font-size="20" font-family="Arial, sans-serif" font-weight="700">导出任务 A</text>
    <text x="58" y="308" fill="#798177" font-size="15" font-family="Arial, sans-serif">项目：仙侠短剧第一季 · 第 3 集</text>
    <rect x="58" y="326" width="280" height="10" rx="5" fill="#E8E2D8"/>
    <rect x="58" y="326" width="198" height="10" rx="5" fill="#9FB194"/>
    <text x="348" y="334" fill="#7A947D" font-size="14" font-family="Arial, sans-serif">72%</text>
    <rect x="58" y="348" width="96" height="20" rx="10" fill="#ECE6DA"/>
    <text x="80" y="362" fill="#667065" font-size="12" font-family="Arial, sans-serif">继续导出</text>

    <rect x="34" y="382" width="392" height="120" rx="28" fill="#FFFDFC" stroke="#E6DED1"/>
    <text x="58" y="420" fill="#2F3932" font-size="20" font-family="Arial, sans-serif" font-weight="700">导出任务 B</text>
    <text x="58" y="448" fill="#798177" font-size="15" font-family="Arial, sans-serif">项目：都市恋爱番外 · 第 1 集</text>
    <rect x="58" y="466" width="280" height="10" rx="5" fill="#E8E2D8"/>
    <rect x="58" y="466" width="280" height="10" rx="5" fill="#9FB194"/>
    <text x="348" y="474" fill="#7A947D" font-size="14" font-family="Arial, sans-serif">100%</text>
    <rect x="58" y="488" width="96" height="20" rx="10" fill="#ECE6DA"/>
    <text x="84" y="502" fill="#667065" font-size="12" font-family="Arial, sans-serif">查看文件</text>

    <rect x="34" y="522" width="392" height="104" rx="28" fill="#FCFAF7" stroke="#E6DED1"/>
    <text x="58" y="560" fill="#2F3932" font-size="20" font-family="Arial, sans-serif" font-weight="700">导出记录</text>
    <text x="58" y="588" fill="#798177" font-size="15" font-family="Arial, sans-serif">按时间倒序展示结果、失败原因和再次导出入口。</text>

    <rect x="34" y="646" width="392" height="32" rx="16" fill="#F3EFE7" stroke="#E3DBCF"/>
    <text x="74" y="667" fill="#90978C" font-size="16" font-family="Arial, sans-serif">动漫生成</text>
    <text x="198" y="667" fill="#7C9780" font-size="16" font-family="Arial, sans-serif" font-weight="700">视频导出</text>
    <text x="330" y="667" fill="#90978C" font-size="16" font-family="Arial, sans-serif">个人中心</text>
  </g>

  <g transform="translate(1068 188)">
    <rect x="0" y="0" width="460" height="706" rx="40" fill="#E7E0D6" stroke="#D8D0C6" stroke-width="2"/>
    <rect x="18" y="18" width="424" height="670" rx="30" fill="url(#card)" stroke="#E5DED3"/>
    <text x="40" y="56" fill="#7B887D" font-size="18" font-family="Arial, sans-serif">个人中心</text>
    <text x="40" y="92" fill="#2C352F" font-size="30" font-family="Arial, sans-serif" font-weight="700">账号与偏好</text>
    <text x="40" y="120" fill="#778076" font-size="16" font-family="Arial, sans-serif">更像生活工具页，不强调“AI 感”，更强调账户、记录和设置。</text>

    <rect x="34" y="148" width="392" height="128" rx="30" fill="#FFFDFC" stroke="#E6DED1"/>
    <circle cx="92" cy="212" r="30" fill="url(#accent)"/>
    <text x="82" y="219" fill="#FFFFFF" font-size="20" font-family="Arial, sans-serif" font-weight="700">邮</text>
    <text x="138" y="198" fill="#2F3932" font-size="20" font-family="Arial, sans-serif" font-weight="700">当前账号</text>
    <text x="138" y="228" fill="#798177" font-size="16" font-family="Arial, sans-serif">example@domain.com</text>
    <rect x="138" y="242" width="108" height="20" rx="10" fill="#ECE6DA"/>
    <text x="160" y="256" fill="#667065" font-size="12" font-family="Arial, sans-serif">独立工作空间</text>

    <rect x="34" y="296" width="188" height="116" rx="26" fill="#FCFAF7" stroke="#E6DED1"/>
    <text x="58" y="336" fill="#2F3932" font-size="18" font-family="Arial, sans-serif" font-weight="700">项目数量</text>
    <text x="58" y="386" fill="#80977E" font-size="42" font-family="Arial, sans-serif" font-weight="700">18</text>

    <rect x="238" y="296" width="188" height="116" rx="26" fill="#FCFAF7" stroke="#E6DED1"/>
    <text x="262" y="336" fill="#2F3932" font-size="18" font-family="Arial, sans-serif" font-weight="700">导出次数</text>
    <text x="262" y="386" fill="#80977E" font-size="42" font-family="Arial, sans-serif" font-weight="700">62</text>

    <rect x="34" y="432" width="392" height="172" rx="28" fill="#FFFDFC" stroke="#E6DED1"/>
    <text x="58" y="470" fill="#2F3932" font-size="20" font-family="Arial, sans-serif" font-weight="700">设置与帮助</text>
    <rect x="58" y="494" width="344" height="36" rx="18" fill="#F4F0E8"/>
    <text x="84" y="517" fill="#687168" font-size="15" font-family="Arial, sans-serif">本地后端地址</text>
    <rect x="58" y="540" width="344" height="36" rx="18" fill="#F4F0E8"/>
    <text x="84" y="563" fill="#687168" font-size="15" font-family="Arial, sans-serif">默认导出设置</text>
    <rect x="58" y="586" width="344" height="36" rx="18" fill="#F4F0E8"/>
    <text x="84" y="609" fill="#687168" font-size="15" font-family="Arial, sans-serif">清理缓存 / 退出登录</text>

    <rect x="34" y="646" width="392" height="32" rx="16" fill="#F3EFE7" stroke="#E3DBCF"/>
    <text x="74" y="667" fill="#90978C" font-size="16" font-family="Arial, sans-serif">动漫生成</text>
    <text x="206" y="667" fill="#90978C" font-size="16" font-family="Arial, sans-serif">视频导出</text>
    <text x="330" y="667" fill="#7C9780" font-size="16" font-family="Arial, sans-serif" font-weight="700">个人中心</text>
  </g>

  <g transform="translate(88 920)">
    <text x="0" y="0" fill="#2C352F" font-size="20" font-family="Arial, sans-serif" font-weight="700">设计关键词</text>
    <text x="0" y="32" fill="#697268" font-size="18" font-family="Arial, sans-serif">米白底 · 鼠尾草绿强调色 · 深灰正文 · 圆角卡片 · 轻投影 · 工具感优先</text>
    <text x="760" y="32" fill="#697268" font-size="18" font-family="Arial, sans-serif">结构不变：TabBar 三主模块 + 动漫生成顶部滑块四子流程</text>
  </g>
</svg>
